<mxfile host="app.diagrams.net" agent="Mozilla/5.0 (X11; Linux x86_64; rv:135.0) Gecko/20100101 Firefox/135.0" version="26.0.16">
  <diagram name="Página-1" id="BWLcb8puxV5DTwIUHzVU">
    <mxGraphModel dx="1434" dy="786" grid="1" gridSize="10" guides="1" tooltips="1" connect="1" arrows="1" fold="1" page="1" pageScale="1" pageWidth="827" pageHeight="1169" math="0" shadow="0">
      <root>
        <mxCell id="0" />
        <mxCell id="1" parent="0" />
        <mxCell id="TPlRJoIPfdAI7P-bpLI3-6" style="edgeStyle=orthogonalEdgeStyle;rounded=0;orthogonalLoop=1;jettySize=auto;html=1;exitX=0.5;exitY=0.5;exitDx=0;exitDy=0;exitPerimeter=0;entryX=0;entryY=0.5;entryDx=0;entryDy=0;" parent="1" source="TPlRJoIPfdAI7P-bpLI3-1" target="TPlRJoIPfdAI7P-bpLI3-3" edge="1">
          <mxGeometry relative="1" as="geometry" />
        </mxCell>
        <mxCell id="TPlRJoIPfdAI7P-bpLI3-7" style="edgeStyle=orthogonalEdgeStyle;rounded=0;orthogonalLoop=1;jettySize=auto;html=1;exitX=0.5;exitY=0.5;exitDx=0;exitDy=0;exitPerimeter=0;entryX=0;entryY=0.5;entryDx=0;entryDy=0;" parent="1" source="TPlRJoIPfdAI7P-bpLI3-1" target="TPlRJoIPfdAI7P-bpLI3-2" edge="1">
          <mxGeometry relative="1" as="geometry" />
        </mxCell>
        <mxCell id="TPlRJoIPfdAI7P-bpLI3-10" style="edgeStyle=orthogonalEdgeStyle;rounded=0;orthogonalLoop=1;jettySize=auto;html=1;exitX=0.5;exitY=0.5;exitDx=0;exitDy=0;exitPerimeter=0;entryX=0;entryY=0.5;entryDx=0;entryDy=0;" parent="1" source="TPlRJoIPfdAI7P-bpLI3-1" target="TPlRJoIPfdAI7P-bpLI3-4" edge="1">
          <mxGeometry relative="1" as="geometry" />
        </mxCell>
        <mxCell id="UEYw76rsarySk-NkJduD-4" style="edgeStyle=orthogonalEdgeStyle;rounded=0;orthogonalLoop=1;jettySize=auto;html=1;exitX=0.5;exitY=0.5;exitDx=0;exitDy=0;exitPerimeter=0;entryX=0;entryY=0.5;entryDx=0;entryDy=0;" edge="1" parent="1" source="TPlRJoIPfdAI7P-bpLI3-1" target="UEYw76rsarySk-NkJduD-2">
          <mxGeometry relative="1" as="geometry" />
        </mxCell>
        <mxCell id="UEYw76rsarySk-NkJduD-9" style="edgeStyle=orthogonalEdgeStyle;rounded=0;orthogonalLoop=1;jettySize=auto;html=1;exitX=0.5;exitY=0.5;exitDx=0;exitDy=0;exitPerimeter=0;entryX=0;entryY=0.5;entryDx=0;entryDy=0;" edge="1" parent="1" source="TPlRJoIPfdAI7P-bpLI3-1" target="UEYw76rsarySk-NkJduD-8">
          <mxGeometry relative="1" as="geometry" />
        </mxCell>
        <mxCell id="TPlRJoIPfdAI7P-bpLI3-1" value="Usuario&lt;div&gt;&lt;br&gt;&lt;/div&gt;" style="shape=umlActor;verticalLabelPosition=bottom;verticalAlign=top;html=1;outlineConnect=0;" parent="1" vertex="1">
          <mxGeometry x="70" y="490" width="30" height="60" as="geometry" />
        </mxCell>
        <mxCell id="TPlRJoIPfdAI7P-bpLI3-2" value="Eliminar informe" style="ellipse;whiteSpace=wrap;html=1;" parent="1" vertex="1">
          <mxGeometry x="250" y="390" width="140" height="70" as="geometry" />
        </mxCell>
        <mxCell id="TPlRJoIPfdAI7P-bpLI3-17" style="edgeStyle=orthogonalEdgeStyle;rounded=0;orthogonalLoop=1;jettySize=auto;html=1;exitX=1;exitY=0.5;exitDx=0;exitDy=0;entryX=0.5;entryY=0.5;entryDx=0;entryDy=0;entryPerimeter=0;" parent="1" source="TPlRJoIPfdAI7P-bpLI3-3" target="TPlRJoIPfdAI7P-bpLI3-16" edge="1">
          <mxGeometry relative="1" as="geometry">
            <Array as="points">
              <mxPoint x="463" y="315" />
              <mxPoint x="463" y="340" />
              <mxPoint x="520" y="340" />
              <mxPoint x="520" y="360" />
            </Array>
          </mxGeometry>
        </mxCell>
        <mxCell id="TPlRJoIPfdAI7P-bpLI3-3" value="Añadir informe" style="ellipse;whiteSpace=wrap;html=1;" parent="1" vertex="1">
          <mxGeometry x="250" y="280" width="140" height="70" as="geometry" />
        </mxCell>
        <mxCell id="TPlRJoIPfdAI7P-bpLI3-4" value="Consultar informe" style="ellipse;whiteSpace=wrap;html=1;" parent="1" vertex="1">
          <mxGeometry x="250" y="520" width="140" height="70" as="geometry" />
        </mxCell>
        <mxCell id="TPlRJoIPfdAI7P-bpLI3-5" value="Modificar informe" style="ellipse;whiteSpace=wrap;html=1;" parent="1" vertex="1">
          <mxGeometry x="590" y="520" width="140" height="70" as="geometry" />
        </mxCell>
        <mxCell id="TPlRJoIPfdAI7P-bpLI3-13" value="Extend" style="endArrow=open;endSize=12;dashed=1;html=1;rounded=0;exitX=0;exitY=0.5;exitDx=0;exitDy=0;entryX=1;entryY=0.5;entryDx=0;entryDy=0;" parent="1" source="TPlRJoIPfdAI7P-bpLI3-5" target="TPlRJoIPfdAI7P-bpLI3-4" edge="1">
          <mxGeometry width="160" relative="1" as="geometry">
            <mxPoint x="330" y="510" as="sourcePoint" />
            <mxPoint x="490" y="510" as="targetPoint" />
          </mxGeometry>
        </mxCell>
        <mxCell id="TPlRJoIPfdAI7P-bpLI3-16" value="Base de datos&lt;div&gt;&lt;br&gt;&lt;/div&gt;" style="shape=umlActor;verticalLabelPosition=bottom;verticalAlign=top;html=1;outlineConnect=0;" parent="1" vertex="1">
          <mxGeometry x="570" y="330" width="30" height="60" as="geometry" />
        </mxCell>
        <mxCell id="TPlRJoIPfdAI7P-bpLI3-18" style="edgeStyle=orthogonalEdgeStyle;rounded=0;orthogonalLoop=1;jettySize=auto;html=1;exitX=1;exitY=0.5;exitDx=0;exitDy=0;entryX=0.5;entryY=0.5;entryDx=0;entryDy=0;entryPerimeter=0;" parent="1" source="TPlRJoIPfdAI7P-bpLI3-2" target="TPlRJoIPfdAI7P-bpLI3-16" edge="1">
          <mxGeometry relative="1" as="geometry">
            <Array as="points">
              <mxPoint x="430" y="425" />
              <mxPoint x="430" y="360" />
            </Array>
          </mxGeometry>
        </mxCell>
        <mxCell id="TPlRJoIPfdAI7P-bpLI3-20" style="edgeStyle=orthogonalEdgeStyle;rounded=0;orthogonalLoop=1;jettySize=auto;html=1;exitX=1;exitY=0.5;exitDx=0;exitDy=0;entryX=0.5;entryY=0.5;entryDx=0;entryDy=0;entryPerimeter=0;" parent="1" source="TPlRJoIPfdAI7P-bpLI3-4" target="TPlRJoIPfdAI7P-bpLI3-16" edge="1">
          <mxGeometry relative="1" as="geometry">
            <Array as="points">
              <mxPoint x="390" y="460" />
              <mxPoint x="490" y="460" />
              <mxPoint x="490" y="360" />
            </Array>
          </mxGeometry>
        </mxCell>
        <mxCell id="UEYw76rsarySk-NkJduD-2" value="Iniciar Sesión" style="ellipse;whiteSpace=wrap;html=1;" vertex="1" parent="1">
          <mxGeometry x="250" y="640" width="140" height="70" as="geometry" />
        </mxCell>
        <mxCell id="UEYw76rsarySk-NkJduD-8" value="Reproducir video" style="ellipse;whiteSpace=wrap;html=1;" vertex="1" parent="1">
          <mxGeometry x="250" y="750" width="140" height="70" as="geometry" />
        </mxCell>
      </root>
    </mxGraphModel>
  </diagram>
</mxfile>
